<?xml version="1.0" encoding="UTF-8"?>
<svg width="444px" height="444px" viewBox="0 0 444 444" version="1.1" xmlns="http://www.w3.org/2000/svg" xmlns:xlink="http://www.w3.org/1999/xlink">
    <!-- Generator: Sketch 55 (78076) - https://sketchapp.com -->
    <title>Support Viz Logo</title>
    <desc>Created with Sketch.</desc>
    <g id="Page-1" stroke="none" stroke-width="1" fill="none" fill-rule="evenodd">
        <circle id="Oval" stroke="#979797" fill="#D3D3D3" cx="222" cy="222" r="221"></circle>
        <path d="M271.041,87.559 L222,136.6 L172.959,87.559 C168.503212,83.1034467 165.99997,77.06027 166,70.759 C166,57.6372666 176.637267,47 189.759,47 C196.06027,46.9999697 202.103447,49.5032118 206.559,53.959 L222,69.4 L237.441,53.959 C241.896553,49.5032118 247.93973,46.9999697 254.241,47 C267.362733,47 278,57.6372666 278,70.759 C278.00003,77.06027 275.496788,83.1034467 271.041,87.559 L271.041,87.559 Z" id="Path" fill="#9B4B63" fill-rule="nonzero"></path>
        <path d="M408.527493,161.298013 C409.811117,159.817025 410.440883,157.879805 410.27346,155.927252 C410.106038,153.974699 409.155669,152.172924 407.638654,150.932001 L327.824466,85.6400007 C324.72967,83.108386 320.169691,83.5573349 317.628203,86.6438652 L232.818373,189.610257 L204.380034,172.550001 L117.944896,86.1287839 C115.215939,83.4003238 110.828334,83.2851623 107.95996,85.8667091 L35.4016073,151.15871 C32.4363133,153.827441 32.1822793,158.389189 34.8329312,161.37056 L91.4284462,225.03026 L97.8625581,270.060884 L91.7195866,276.202866 C81.633658,286.234403 81.3088132,302.451571 90.9849333,312.878833 C96.5828081,318.876384 104.424327,322.274463 112.62909,322.258211 C117.091277,322.272137 121.491596,321.214762 125.460128,319.174977 L135.799693,334.681827 C136.988556,336.464607 138.904842,337.630725 141.034778,337.867533 L148.874708,338.738093 L146.818586,341.741525 C142.447857,348.122914 141.793867,356.344504 145.10081,363.33642 C148.407752,370.328337 155.178465,375.039422 162.884819,375.710595 C162.677815,382.090981 165.283629,388.240378 170.012075,392.530036 C174.740521,396.819694 181.114515,398.816801 187.445821,397.992397 C190.201947,409.208483 201.240729,416.318768 212.594546,414.191161 C214.141894,413.902296 215.653733,413.448088 217.104048,412.836352 C220.532237,419.7653 227.376763,424.358353 235.089029,424.905263 C242.801296,425.452173 250.225679,421.87099 254.597669,415.495187 L257.936261,410.618238 C258.236491,410.176961 258.487411,409.704092 258.684519,409.208112 C262.438695,407.880075 265.753531,405.541989 268.264035,402.451297 L268.264035,402.451297 C270.636431,399.554882 272.216489,396.092502 272.849723,392.402676 C273.671394,392.502507 274.498082,392.555491 275.325777,392.561372 C276.073068,392.561113 276.819866,392.522977 277.563295,392.447111 C289.056262,391.282272 297.63651,381.342331 297.108701,369.80439 C302.403209,368.984439 307.204073,366.226617 310.579159,362.066381 L310.579159,362.066381 C315.272531,356.306048 316.702625,348.549844 314.372147,341.494866 C321.57583,338.676541 326.741519,332.246372 327.940246,324.605507 C329.138974,316.964643 326.190507,309.261904 320.195862,304.373644 L315.977501,300.927677 L315.977501,268.073105 L408.527493,161.298013 Z M105.482092,220.813485 C105.279928,219.403565 104.667741,218.084153 103.721645,217.019295 L50.4665352,157.115698 L112.547462,101.254764 L194.749726,183.44379 C195.169711,183.861897 195.639049,184.227319 196.147382,184.53199 L223.490997,200.935698 L217.777026,207.875694 L176.923046,214.683292 C176.209405,214.802123 175.517575,215.027092 174.870552,215.350721 L131.33554,237.114721 C130.637841,237.463652 130.001102,237.922986 129.44993,238.474971 L110.688154,257.233726 L105.482092,220.813485 Z M137.10665,310.491141 L161.136162,291.168336 L164.36773,297.630431 C165.368972,299.632718 167.238671,301.060702 169.434117,301.499889 L188.215847,305.255086 C194.990139,306.625709 199.86531,312.571921 199.880509,319.482394 L199.880509,321.703229 C199.880478,323.766678 199.001612,325.732483 197.463859,327.108674 C195.926106,328.484865 193.874983,329.141214 191.823811,328.913461 L145.995955,323.821591 L137.10665,310.491141 Z M160.681766,360.021471 C157.37932,357.755744 156.533841,353.245087 158.791621,349.937485 L165.213942,340.556294 L181.556804,342.36996 L170.76647,358.136165 L170.76647,358.136165 L170.760121,358.14614 C168.490082,361.439041 163.984635,362.277393 160.681766,360.021471 Z M218.647727,390.944488 L214.566319,396.899663 C212.271285,400.118289 207.821516,400.907474 204.559297,398.67445 C201.297079,396.441426 200.423265,392.00819 202.594191,388.70461 L209.045536,379.279891 C210.431113,382.365245 212.519646,385.083566 215.144065,387.217403 L219.054053,390.406736 C218.920727,390.569966 218.790122,390.735917 218.668587,390.912749 L218.647727,390.944488 Z M233.491352,364.731564 L255.984441,383.075895 C259.088441,385.608441 259.552114,390.177041 257.020211,393.281398 L257.020211,393.281398 C254.484741,396.382367 249.917023,396.845678 246.810344,394.317002 L224.317255,375.97267 C222.043266,374.117798 221.11073,371.075963 221.954494,368.265589 C222.798259,365.455215 225.252155,363.429767 228.171917,363.133723 C228.419942,363.108696 228.669078,363.096287 228.918361,363.096543 C230.585945,363.095435 232.20223,363.672999 233.491352,364.730657 L233.491352,364.731564 Z M232.531767,409.190882 C229.411179,407.058957 228.454649,402.886365 230.335063,399.608374 L237.631713,405.559921 C238.92787,406.611935 240.34015,407.512229 241.841004,408.243241 C239.381947,410.781889 235.452077,411.181934 232.531767,409.190882 Z M280.982607,375.382321 C279.766174,376.873236 278.0072,377.819934 276.092644,378.014147 C274.178089,378.208361 272.264786,377.634182 270.773647,376.417925 L248.280558,358.073593 C246.271556,356.435225 245.289362,353.849693 245.703959,351.290942 C246.118555,348.732191 247.866955,346.588957 250.290553,345.668575 C252.714152,344.748193 255.444746,345.190491 257.453748,346.82886 L279.946837,365.173192 C281.437992,366.389429 282.384842,368.14812 282.579087,370.062367 C282.773332,371.976614 282.19906,373.889609 280.982607,375.380508 L280.982607,375.382321 Z M299.32808,352.892855 L299.32808,352.892855 C296.795057,355.99694 292.225024,356.460569 289.120027,353.928458 L266.626937,335.585033 C264.352885,333.730043 263.42043,330.688022 264.264412,327.877584 C265.108394,325.067146 267.562587,323.041817 270.482507,322.746087 C270.730211,322.720738 270.979046,322.708025 271.228044,322.708 C272.894445,322.707161 274.509591,323.28402 275.798313,324.3403 L298.291402,342.685538 C301.39548,345.220006 301.860181,349.789163 299.329894,352.896482 L299.32808,352.892855 Z M279.355486,308.513338 C277.346485,306.874969 276.364291,304.289437 276.778887,301.730686 C277.193484,299.171936 278.941884,297.028702 281.365482,296.10832 C283.78908,295.187938 286.519674,295.630236 288.528676,297.268604 L311.021765,315.612936 C314.127413,318.145134 314.591955,322.715105 312.05935,325.820252 C309.526744,328.925399 304.956037,329.389867 301.85039,326.857669 L279.355486,308.513338 Z M297.700959,286.023871 C290.20975,279.907779 279.579919,279.469953 271.61096,284.949265 C263.642001,290.428577 260.247059,300.509583 263.278369,309.692221 C254.596755,313.095022 249.046212,321.647586 249.47505,330.96109 C240.272971,332.405336 233.012718,339.54882 231.420718,348.725049 C230.433027,348.612208 229.438773,348.567064 228.444918,348.58993 C228.405697,345.426576 226.320788,342.653386 223.292474,341.736535 C220.264159,340.819684 216.990804,341.970609 215.203019,344.58082 L190.614807,380.501396 C188.317146,383.711997 183.873559,384.496259 180.615355,382.266229 C177.357151,380.0362 176.480527,375.610598 178.642679,372.30725 L197.703758,344.46928 C198.092416,343.898826 198.39781,343.275922 198.610738,342.61934 C207.954519,339.956086 214.396825,331.417704 214.392179,321.703229 L214.392179,319.482394 C214.361017,305.661661 204.609733,293.770149 191.061041,291.030498 L175.759391,287.970842 L170.09077,276.635425 C169.111509,274.670883 167.294231,273.256177 165.149258,272.788582 C163.004286,272.320988 160.762946,272.850931 159.054645,274.229596 L159.054645,274.229596 L120.693951,305.075533 C115.261144,309.443749 106.715584,308.530568 101.647383,303.040598 C97.2741527,298.328133 97.4213436,290.998647 101.980245,286.465499 L138.878888,249.571891 L180.380452,228.815383 L222.838879,221.742083 C224.567616,221.454093 226.133681,220.550231 227.247705,219.197508 L324.231013,101.45064 L392.669865,157.437624 L303.232626,260.618028 C302.090634,261.936764 301.462109,263.622755 301.462202,265.367114 L301.462202,289.097129 L297.700959,286.023871 Z" id="Shape" fill="#000000" fill-rule="nonzero"></path>
    </g>
</svg>